# xmcd
# 
# Track frame offsets:
#     182
#     14992
#     29735
# 
# Disc length: 591
# 
# Revision: 1
# Processed by: cddbd v1.5.2PL0 Copyright (c) Steve Scherf et al.
# Submitted via: BonkEnc v1.0.8
# 
DISCID=27024d03
DTITLE=FC Bayern and Andrew White - To the Top
DYEAR=1997
DGENRE=Pop
TTITLE0=To the Top (deutsche Version)
TTITLE1=To the Top (englische Version)
TTITLE2=To the Top (karaoke Version)
EXTD=
EXTT0=
EXTT1=
EXTT2=
PLAYORDER=
